<svg xmlns="http://www.w3.org/2000/svg" viewBox="0 0 35 35" fill="currentColor"><style>@media (prefers-color-scheme:dark){path{fill:#CCC}}</style><path d="M10.417 5C7.44 5 5 7.44 5 10.417v19.167C5 32.561 7.44 35 10.417 35h19.167C32.561 35 35 32.561 35 29.584V10.417C35 7.44 32.561 5 29.584 5H10.417zM7.5 13.333h25v16.25a2.898 2.898 0 01-2.916 2.916H10.417A2.898 2.898 0 017.5 29.583v-16.25zm4.07 4.987a1.25 1.25 0 00-.871 2.146l2.449 2.449-2.449 2.45a1.25 1.25 0 001.732 1.804l.036-.036L15.8 23.8a1.25 1.25 0 000-1.768L12.467 18.7a1.248 1.248 0 00-.897-.38zm7.877 7.047c-.43.73-.788 1.354-1.074 1.869a8.154 8.154 0 00-.902-.602c.258-.23.616-.688 1.074-1.375.458-.688.845-1.332 1.161-1.934.143.229.357.443.645.645-.173.201-.474.667-.904 1.397zm-1.676-4.361c.143-.144.301-.33.473-.559.716.43 1.346.903 1.891 1.418-.23.2-.445.43-.645.688a13.383 13.383 0 00-1.719-1.547zm.43-2.536c.229-.2.415-.401.559-.602.801.487 1.403.917 1.805 1.289-.258.201-.473.43-.645.688a9.612 9.612 0 00-1.719-1.375zm2.707 6.854c.344-.73.559-1.576.645-2.535.086-.96.121-1.848.107-2.665a36.892 36.892 0 00-.107-2.256h5.629c-.029.401-.043.917-.043 1.547 0 .63.014 1.174.043 1.633h-4.684c0 1.317-.08 2.334-.236 3.051-.158.716-.365 1.324-.623 1.826-.258.5-.631 1.037-1.117 1.611-.23-.23-.559-.416-.988-.559.571-.372 1.03-.922 1.374-1.653zm5.371-4.963v-1.805h-3.781v1.805h3.781zm1.053 6.575a1.264 1.264 0 01-.666.172h-2.063c-.717 0-1.074-.287-1.074-.859v-3.051c0-.659-.016-1.146-.043-1.461h.988c-.029.314-.043.787-.043 1.418v.645c1.031-.545 1.762-1.061 2.191-1.547.199.258.457.486.773.688a34.768 34.768 0 01-2.965 1.676v1.375c0 .286.199.43.602.43h1.203a.65.65 0 00.473-.172c.113-.115.186-.416.215-.902.258.2.572.329.945.387-.171.685-.35 1.085-.536 1.201z" fill="#333"/></svg>