<svg xmlns="http://www.w3.org/2000/svg" viewBox="0 0 40 40" fill="currentColor">
<style>
path {
fill: #000000;
}
@media (prefers-color-scheme: dark) {
path {
fill: #1454ec;
}
}
</style>
<path d="M10.417,5C7.44,5,5,7.44,5,10.417v19.167C5,32.561,7.44,35,10.417,35h19.167C32.561,35,35,32.561,35,29.584V10.417
	C35,7.44,32.561,5,29.584,5H10.417z M7.5,13.333h25v16.25c0,1.625-1.291,2.916-2.916,2.916H10.417c-1.625,0-2.917-1.291-2.917-2.916
	V13.333z M11.57,18.32c-0.69,0-1.25,0.56-1.25,1.25c0,0.338,0.137,0.661,0.379,0.896l2.449,2.449l-2.449,2.45
	c-0.498,0.478-0.514,1.27-0.036,1.768s1.27,0.515,1.768,0.036c0.012-0.012,0.024-0.023,0.036-0.036l3.333-3.333
	c0.488-0.488,0.488-1.279,0-1.768L12.467,18.7C12.232,18.457,11.908,18.32,11.57,18.32z M19.447,25.367
	c-0.43,0.73-0.788,1.354-1.074,1.869c-0.258-0.201-0.559-0.402-0.902-0.602c0.258-0.23,0.616-0.688,1.074-1.375
	c0.458-0.688,0.845-1.332,1.161-1.934c0.143,0.229,0.357,0.443,0.645,0.645C20.178,24.171,19.877,24.637,19.447,25.367z
	 M17.771,21.006c0.143-0.144,0.301-0.33,0.473-0.559c0.716,0.43,1.346,0.903,1.891,1.418c-0.23,0.2-0.445,0.43-0.645,0.688
	C18.888,21.922,18.315,21.406,17.771,21.006z M18.201,18.47c0.229-0.2,0.415-0.401,0.559-0.602c0.801,0.487,1.403,0.917,1.805,1.289
	c-0.258,0.201-0.473,0.43-0.645,0.688C19.375,19.301,18.802,18.843,18.201,18.47z M20.908,25.324
	c0.344-0.73,0.559-1.576,0.645-2.535c0.086-0.96,0.121-1.848,0.107-2.665c-0.016-0.816-0.051-1.568-0.107-2.256h5.629
	c-0.029,0.401-0.043,0.917-0.043,1.547c0,0.63,0.014,1.174,0.043,1.633h-4.684c0,1.317-0.08,2.334-0.236,3.051
	c-0.158,0.716-0.365,1.324-0.623,1.826c-0.258,0.5-0.631,1.037-1.117,1.611c-0.23-0.23-0.559-0.416-0.988-0.559
	C20.105,26.605,20.564,26.055,20.908,25.324z M26.279,20.361v-1.805h-3.781v1.805H26.279z M27.332,26.936
	c-0.188,0.113-0.408,0.172-0.666,0.172h-2.063c-0.717,0-1.074-0.287-1.074-0.859v-3.051c0-0.659-0.016-1.146-0.043-1.461h0.988
	c-0.029,0.314-0.043,0.787-0.043,1.418v0.645c1.031-0.545,1.762-1.061,2.191-1.547c0.199,0.258,0.457,0.486,0.773,0.688
	c-0.258,0.172-0.674,0.422-1.246,0.752c-0.574,0.329-1.146,0.637-1.719,0.924v1.375c0,0.286,0.199,0.43,0.602,0.43h1.203
	c0.199,0,0.357-0.059,0.473-0.172c0.113-0.115,0.186-0.416,0.215-0.902c0.258,0.2,0.572,0.329,0.945,0.387
	C27.697,26.42,27.518,26.82,27.332,26.936z"/>
</svg>